<?xml version="1.0" standalone="no"?>
<!DOCTYPE svg PUBLIC "-//W3C//DTD SVG 20010904//EN"
 "http://www.w3.org/TR/2001/REC-SVG-20010904/DTD/svg10.dtd">
<svg version="1.0" xmlns="http://www.w3.org/2000/svg"
 width="896.000000pt" height="620.000000pt" viewBox="0 0 896.000000 620.000000"
 preserveAspectRatio="xMidYMid meet">

<g transform="translate(0.000000,620.000000) scale(0.100000,-0.100000)"
fill="#000000" stroke="none">
<path d="M479 5433 c22 -38 159 -284 306 -548 147 -264 298 -534 335 -600 37
-66 143 -255 235 -420 165 -296 370 -662 550 -985 51 -91 146 -262 212 -380
66 -118 212 -379 325 -580 112 -201 311 -558 443 -793 131 -235 242 -424 246
-420 5 5 160 278 344 608 349 623 409 729 480 855 24 41 179 318 345 615 166
297 364 650 440 785 482 859 1046 1864 1069 1908 l12 22 -519 0 -519 0 -80
-142 c-611 -1090 -846 -1509 -978 -1743 -86 -154 -256 -457 -377 -673 -121
-216 -222 -392 -223 -390 -2 3 -306 543 -420 748 -55 99 -679 1211 -766 1365
-37 66 -157 280 -266 475 l-199 355 -517 3 -516 2 38 -67z"/>
<path d="M5921 4867 c-142 -254 -223 -398 -317 -563 -37 -65 -63 -122 -60
-131 3 -8 124 -225 268 -481 144 -257 313 -559 376 -672 63 -113 148 -264 188
-336 40 -72 76 -138 80 -147 6 -16 -57 -17 -923 -17 l-928 0 -155 -276 c-85
-152 -185 -330 -222 -395 l-66 -119 1374 0 1373 0 39 -67 c48 -84 141 -249
364 -648 l173 -310 517 -3 517 -2 -18 32 c-20 34 -326 581 -1244 2223 -104
187 -232 417 -285 510 -52 94 -114 204 -137 245 -105 185 -464 828 -663 1187
-59 106 -111 192 -117 193 -5 0 -66 -100 -134 -223z"/>
</g>
</svg>
